<svg id="Layer_1" data-name="Layer 1" xmlns="http://www.w3.org/2000/svg" viewBox="0 0 32 32"><defs><style>.cls-1{font-size:12px;fill:#231f20;font-family:MyriadPro-Regular, Myriad Pro;}.cls-2{letter-spacing:0em;}.cls-3{letter-spacing:-0.01em;}.cls-4{letter-spacing:-0.01em;}.cls-5{letter-spacing:0em;}.cls-6{letter-spacing:-0.01em;}.cls-7{letter-spacing:0em;}.cls-8{fill:#8cc540;}</style></defs><text class="cls-1" transform="translate(2.04 -2.07)"><tspan class="cls-2">A</tspan><tspan x="7.31" y="0">lt i</tspan><tspan class="cls-3" x="19.46" y="0">c</tspan><tspan x="24.77" y="0">on, base = 32</tspan><tspan class="cls-4" x="90.97" y="0">p</tspan><tspan class="cls-5" x="97.63" y="0">x squa</tspan><tspan class="cls-6" x="129.63" y="0">r</tspan><tspan class="cls-7" x="133.44" y="0">e</tspan></text><path class="cls-8" d="M16,1a15,15,0,1,1-5.85,1.18A15,15,0,0,1,16,1m0-1A16,16,0,1,0,32,16,16,16,0,0,0,16,0Z"/><path class="cls-8" d="M15.91,2.69A13.31,13.31,0,1,0,29.22,16,13.31,13.31,0,0,0,15.91,2.69Zm5.9,22.25a4.68,4.68,0,0,1-2.12,1.57,13,13,0,0,1-4.59.75,15.65,15.65,0,0,1-3.55-.38,5,5,0,0,1-2.31-1,1.94,1.94,0,0,1-.69-1.4,1.83,1.83,0,0,1,.53-1.27,4.42,4.42,0,0,1,2-.94,3,3,0,0,1-2-2.73,3.21,3.21,0,0,1,.82-2.06,6.5,6.5,0,0,1,2.6-1.73,6.3,6.3,0,0,1-3-2,4.54,4.54,0,0,1-.93-2.83,4.76,4.76,0,0,1,1.73-3.65,6.47,6.47,0,0,1,4.45-1.54,8.11,8.11,0,0,1,3,.6h4.87V8H19.8a4.93,4.93,0,0,1,1.05,1.36,4.15,4.15,0,0,1,.37,1.74,4.29,4.29,0,0,1-.85,2.66A5.69,5.69,0,0,1,18,15.52a6.83,6.83,0,0,1-2.62.64l-1.85-.08a1.61,1.61,0,0,0-1.17.45,1.45,1.45,0,0,0-.47,1.08,1.14,1.14,0,0,0,.42.91,2.23,2.23,0,0,0,1.39.35l2.67,0a9.8,9.8,0,0,1,4.47.71,3.24,3.24,0,0,1,1.75,3A3.82,3.82,0,0,1,21.81,24.94Z"/><path class="cls-8" d="M18.6,22.77a31.82,31.82,0,0,0-4.49-.17,5.22,5.22,0,0,0-2.08.26,1.44,1.44,0,0,0-.88,1.29,1.77,1.77,0,0,0,.91,1.42,6.51,6.51,0,0,0,3.43.63,8.2,8.2,0,0,0,3.38-.57A1.75,1.75,0,0,0,20.1,24a.89.89,0,0,0-.24-.64A2.15,2.15,0,0,0,18.6,22.77Z"/><path class="cls-8" d="M15,15.27a1.83,1.83,0,0,0,1.54-.85,5.91,5.91,0,0,0,.62-3.28,7.07,7.07,0,0,0-.69-3.74A1.59,1.59,0,0,0,15,6.66a1.81,1.81,0,0,0-1.52.9,7.4,7.4,0,0,0-.62,3.72,5.82,5.82,0,0,0,.61,3.14A1.78,1.78,0,0,0,15,15.27Z"/></svg>